<svg id="Layer_1" data-name="Layer 1" xmlns="http://www.w3.org/2000/svg" xmlns:xlink="http://www.w3.org/1999/xlink" viewBox="0 0 471.04 113.27"><defs><style>.cls-1{fill:url(#radial-gradient);}.cls-2{fill:url(#radial-gradient-2);}.cls-3{fill:url(#linear-gradient);}.cls-4{fill:url(#radial-gradient-3);}.cls-5{fill:#1f3c47;}.cls-6{fill:url(#linear-gradient-2);}.cls-7{fill:#00b0ed;}.cls-8{fill:url(#radial-gradient-4);}.cls-9{fill:#fff;}</style><radialGradient id="radial-gradient" cx="98.51" cy="89.52" r="0.05" gradientUnits="userSpaceOnUse"><stop offset="0" stop-color="#f6df78"/><stop offset="0.54" stop-color="#e6712d"/></radialGradient><radialGradient id="radial-gradient-2" cx="60.65" cy="27.89" r="44.13" gradientUnits="userSpaceOnUse"><stop offset="0" stop-color="#f1b91b"/><stop offset="1" stop-color="#f47920"/></radialGradient><linearGradient id="linear-gradient" x1="17.33" y1="93.1" x2="113.01" y2="93.1" gradientUnits="userSpaceOnUse"><stop offset="0" stop-color="#8ad5f4"/><stop offset="0.37" stop-color="#87d0f1"/><stop offset="1" stop-color="#3f8fcd"/></linearGradient><radialGradient id="radial-gradient-3" cx="88.69" cy="56.5" r="20.85" gradientUnits="userSpaceOnUse"><stop offset="0.41" stop-color="#8ad5f4"/><stop offset="1" stop-color="#3f8fcd"/></radialGradient><linearGradient id="linear-gradient-2" x1="47.28" y1="82.84" x2="47.28" y2="33.49" gradientUnits="userSpaceOnUse"><stop offset="0" stop-color="#ed1c24"/><stop offset="1" stop-color="#ed1c24"/></linearGradient><radialGradient id="radial-gradient-4" cx="51.35" cy="70.48" r="10.29" gradientUnits="userSpaceOnUse"><stop offset="0" stop-color="#8ad5f4"/><stop offset="1" stop-color="#3f8fcd"/></radialGradient></defs><title>logo</title><path class="cls-1" d="M98.53,89.51h0s0,0,0,0l-.11.09Z"/><path class="cls-2" d="M17.91,44.47,34,43.73l-9.83,9.38-4.55.72-8,1.28-5.21.83a57.3,57.3,0,0,1-1.5-10.88L7.33,45Zm6-19-10-4.12A57.19,57.19,0,0,0,8,30.59l7.81,2.25,2.53.72.52.14,19.75,5.65,5.7-5.44L24.61,25.8ZM39.65,14.72l-.74-.81h0l-2.81-3.06-4.2-4.57a57.11,57.11,0,0,0-6.52,4.1q-1,.73-2,1.53l3.9,3.39,3.89,3.38.71.61L46.39,31.91l.43.37A19.77,19.77,0,0,1,49,29.4a18.24,18.24,0,0,1,2.2-2.1Zm7-3.75.46,1,6.17,13.84A20.08,20.08,0,0,1,57,23.94a19.82,19.82,0,0,1,2.34-.74l-4-12.64L55,9.41l-.48-1.52-2.56-8C50.44,0,49,.27,47.55.57h0q-2.53.53-5,1.26l2.92,6.56ZM80.74,38.09c-.07-.22-.16-.45-.24-.67a16.78,16.78,0,0,0-2.77-4.74,12,12,0,0,0-.81-.93,16.92,16.92,0,0,0-5-3.63c-.35-.18-.74-.34-1.12-.5a17.23,17.23,0,0,0-6.1-1.18,16.53,16.53,0,0,0-4.16.49,15.18,15.18,0,0,0-2.12.65,17.13,17.13,0,0,0-3.55,1.87c-.29.2-.59.42-.87.64l9.41,9.45,18.24,3.71a16.57,16.57,0,0,0-.54-4C81,38.88,80.87,38.49,80.74,38.09ZM75.15,13.68l.14-.44.34-1.1L79,2.85l-.51-.18-1.43-.48L76.62,2l-.34-.1A62.84,62.84,0,0,0,69.76.28v0L67.88,10l-.08.42-.14.73v0L65.44,22.56a21,21,0,0,1,6.5,1.34Zm4.41,15.19,6.36-7,2.55-2.48,8-7.73a35.76,35.76,0,0,0-5.86-4.31L88.14,5.89s0,0,0,0l-.17-.1h0l-6.4,9.05-1.42,2-5.86,8.08A21.08,21.08,0,0,1,79.56,28.87Zm36.81,17.94c-.06-.4-.13-.79-.2-1.17s-.11-.58-.16-.87v0a1.59,1.59,0,0,0-.06-.3c-.59-2.67-1.48-5.62-2.18-7.86l-11.43,1-6,.56L85.05,39a20.68,20.68,0,0,1,.48,5l9.78,2,3.22.13,6.57.3,11.3.52ZM98.78,30.9l10.61-3.76a31,31,0,0,0-2.48-3.91c-.13-.2-.27-.39-.42-.58-1.11-1.53-2.29-3-3.24-4.19l-.06-.06L93.38,24l-3.8,2.15L81.2,30.76a21.18,21.18,0,0,1,3,5.25l.21.58,9.46-3.93Z"/><path class="cls-3" d="M112.87,75.65q-1.22,2.55-2.39,5.13a.78.78,0,0,1-1,.51A38.89,38.89,0,0,0,98.76,81a51.46,51.46,0,0,0-13.57,3.57c-6.38,2.57-12.4,5.86-18.5,9a85.62,85.62,0,0,1-15.11,6.35l-.11,0c-1.45.42-2.92.8-4.42,1.09-.77.16-1.55.3-2.33.42C37,102.6,29.54,101.8,22.58,98a22.34,22.34,0,0,1-5.25-4.4,41.56,41.56,0,0,0,7.51,2.77,33.17,33.17,0,0,0,12.24.72l.16,0c7.66-1,14.42-4.35,21.1-7.92C64.72,85.77,70.94,82,77.57,79.1a63.41,63.41,0,0,1,21.32-5.43q1.88-.14,3.72-.09a51.77,51.77,0,0,1,9.76,1.12C113.07,74.85,113.14,75.09,112.87,75.65ZM96,84.93c-.78.13-1.56.29-2.35.45-5.88,1.28-11.14,4-16.32,6.91a161.82,161.82,0,0,1-15.77,8.25l-1.15.47-.24.09c-1.36.55-2.74,1-4.12,1.45a45.49,45.49,0,0,1-14.48,2.08,49.49,49.49,0,0,1-12.54-2c-1.13-.32-2.25-.7-3.61-1.13,25.31,20,64.55,12.4,82.7-16.75A36.21,36.21,0,0,0,96,84.93Z"/><path class="cls-4" d="M86.27,54.37,74.21,52.83,63.39,41.35l12.49,2.82Zm6.89-6.15L77.5,44.57,87.8,54.64l15,2.48ZM87.8,55.78,76,54.14,92.52,71.65l9.29-1.08Zm18.08,4.31-1.68-1.64L90,56.18l13.65,14.67.21.23,9.43.35c.27-1.14.52-2.3.72-3.46Z"/><path class="cls-5" d="M76.62,2a2.8,2.8,0,0,1-.31-.09h0Z"/><path class="cls-6" d="M89.91,72a63.84,63.84,0,0,0-7.71,2.14l-30.9-31L16.5,74.6l-.42.38,0,0L9.59,80.83l-2,2-1-2C5.88,79.24,5.24,77.62,4.66,76l46.9-42.47Z"/><path class="cls-7" d="M80.35,3.36l-3.92,9.08-.45,1c-.22-.09-.46-.17-.69-.24a44.49,44.49,0,0,0-7.63-2.11l-.21,0-.19,0-.17,0L67,11l-.14,0h-.16a44.87,44.87,0,0,0-5.46-.55c-.64,0-1.29,0-1.93,0-1.33,0-2.63.06-3.93.17-1.06.09-2.11.21-3.16.37A45,45,0,0,0,47.08,12c-1.46.4-2.89.86-4.29,1.39-1.07.4-2.11.84-3.14,1.33A45.26,45.26,0,0,0,34,17.84c-.72.47-1.42.95-2.11,1.45a47.05,47.05,0,0,0-7.1,6.35l-.15.16a46.84,46.84,0,0,0-5.78,7.9l-.31.54a47,47,0,0,0-4.3,10.39c-.26.95-.49,1.91-.7,2.88a45.53,45.53,0,0,0-.85,6,.49.49,0,0,0,0,.12c0,.44-.06.88-.08,1.31s0,.63,0,.95h0c0,.4,0,.81,0,1.21a47,47,0,0,0,1.07,10h0v0s0,.14.05.27a.65.65,0,0,0,0,.13v0s0,.08,0,.13h0s0,0,0,0L4.66,76a.09.09,0,0,1,0,0A57.3,57.3,0,0,1,1.5,57.12c0-1.44.06-2.87.16-4.29,0-.06,0-.11,0-.17A57.13,57.13,0,0,1,8,30.6H8a56.57,56.57,0,0,1,6-9.2,57.92,57.92,0,0,1,9.43-9.48c.67-.53,1.33-1,2-1.53a57,57,0,0,1,6.51-4.1c1-.53,2-1,3-1.5a56.64,56.64,0,0,1,7.66-2.95Q45,1.1,47.55.57h0C49,.27,50.45,0,51.93-.16h0a54.56,54.56,0,0,1,5.76-.45c.52,0,1,0,1.57,0a57.62,57.62,0,0,1,6.6.38H66c1.27.11,2.56.3,3.8.53a62.84,62.84,0,0,1,6.52,1.65h0a2.8,2.8,0,0,0,.31.09l.45.16c.53.17,1,.33,1.43.48l.52.18.06,0,.35.14.41.15.32.12Z"/><path class="cls-5" d="M67.66,11.13v0L66.74,11C66.89,11,67.21,11.05,67.66,11.13Z"/><path class="cls-8" d="M50.64,69.62H41.13v-9.5h9.51Zm10.93-9.5h-9.5v9.5h9.5ZM50.64,71.33H41.13v9.51h9.51Zm10.93,0h-9.5v9.51h9.5Z"/><path class="cls-5" d="M98.56,89.47s0,0,0,0h0l-.08,0Z"/><path class="cls-5" d="M80.16,3.28l-.33-.12Z"/><path class="cls-5" d="M13.61,67.11h0v0Z"/><path class="cls-9" d="M175.34,25.22q7.53,0,10.77,2.92t3.23,10.34a31.82,31.82,0,0,1-.31,4.83,9,9,0,0,1-1.26,3.49,6.48,6.48,0,0,1-2.19,2.2,34.65,34.65,0,0,1-5.28,2,13,13,0,0,1,6.47,2.23c1.38,1.11,2.07,3,2.07,5.81v8H175.9v-4a18.29,18.29,0,0,0-.53-4.9c-.36-1.22-2-1.82-5-1.82h-21.3V67.12H136.33V25.22ZM170,46.2c2.89,0,4.69-.35,5.4-1.07s1.07-2.3,1.07-4.77a8.75,8.75,0,0,0-.41-3.08,2.41,2.41,0,0,0-1.7-1.38,10.82,10.82,0,0,0-2.1-.44c-.55,0-1.19-.06-1.95-.06H149.08V46.2H170Zm29.83,20.92V25.22h12.75v41.9Zm35.74-12.69c0,1.72.58,2.79,1.73,3.23a13.89,13.89,0,0,0,4.8.66l6,.07,8.54-.26q3.52,0,4.59-.87a3.39,3.39,0,0,0,1.06-2.77,3.3,3.3,0,0,0-1.22-2.7c-.82-.67-2.38-1-4.68-1h-2.07l-21-.44q-5.91,0-8.32-3t-2.42-9.14a17.44,17.44,0,0,1,1.54-8.1,8.23,8.23,0,0,1,5.59-3.92A50.31,50.31,0,0,1,240.37,25c4.38-.12,7.32-.19,8.83-.19l8.92.13a35,35,0,0,1,8.6.85,7.13,7.13,0,0,1,4.62,3.11A13.33,13.33,0,0,1,273.06,33a25.31,25.31,0,0,1,.38,5h-12.5a3.46,3.46,0,0,0-1.28-3.07,6.34,6.34,0,0,0-3.61-.88L249.89,34l-9.74.32a6.92,6.92,0,0,0-3.29.72,2.53,2.53,0,0,0-1.35,2.42c0,1.55.53,2.56,1.6,3a10.65,10.65,0,0,0,4.36.73h1.32l8.54.12,8.42.06q8.1,0,11.78,2.55c2.45,1.69,3.67,5.1,3.67,10.2s-1.1,8.34-3.3,10.18-5.83,2.76-10.89,2.76l-16.33.44-8.54-.19q-6.79,0-10-2.19t-3.21-8.86V53.74h12.57ZM332,25.22v9.55H298v7.16h31.72v8.29H298v7.41h34v9.49H285.25V25.22Z"/><path class="cls-7" d="M410.86,49.15V51.6q0,9.8-5.11,12.91T390,67.62l-10.43-.06a69.6,69.6,0,0,1-12.68-.88,11.47,11.47,0,0,1-7.1-4.46Q357,58.64,357,51V25.29h12.75V47.21q0,6.27,1.51,8.16t7.6,1.89l5.71.06,5.28-.06q5.21,0,6.69-1.64c1-1.09,1.47-3.28,1.47-6.59V25.29h12.81Zm44.85-23.93q9.48,0,13.16,3.08t3.67,12.37q0,8.8-2.85,12.41t-12,3.61H434.54V67.12H421.79V25.22Zm4,15.89c0-2.34-.51-3.88-1.51-4.61s-2.76-1.1-5.28-1.1H434.54V46.52h18.53q3.65,0,5.12-1C459.17,44.79,459.67,43.33,459.67,41.11Z"/><path class="cls-9" d="M144.52,77.52a3.44,3.44,0,0,1,2.35.64,3,3,0,0,1,.71,2.26,6.35,6.35,0,0,1-.07,1,2.19,2.19,0,0,1-.27.77,1.57,1.57,0,0,1-.48.48,8.37,8.37,0,0,1-1.16.44,3,3,0,0,1,1.42.49,1.54,1.54,0,0,1,.45,1.27v1.76h-2.83V85.8a4.28,4.28,0,0,0-.11-1.07c-.08-.27-.45-.4-1.1-.4h-4.65v2.35H136V77.52Zm-1.17,4.59a1.83,1.83,0,0,0,1.18-.24,1.52,1.52,0,0,0,.24-1,1.85,1.85,0,0,0-.09-.67.52.52,0,0,0-.37-.3,2.15,2.15,0,0,0-.46-.1h-5.07v2.36h4.57Z"/><path class="cls-9" d="M155.77,77.43H158a5.12,5.12,0,0,1,3.34.81c.6.54.89,1.62.89,3.24v.44c0,1.9-.23,3.17-.71,3.82s-1.68,1-3.61,1l-2.1,0h-.88L153,86.7a3.76,3.76,0,0,1-2.46-.72,2.87,2.87,0,0,1-.86-2.32l0-1.69c0-1.86.24-3.07.72-3.64s1.6-.86,3.38-.86Zm-1.51,7.06,1.5,0h1.42a4.08,4.08,0,0,0,1.7-.26q.51-.25.51-1.26l0-1.23a6.79,6.79,0,0,0-.07-1.09A1.2,1.2,0,0,0,159,80a1.37,1.37,0,0,0-.7-.28,7.4,7.4,0,0,0-1-.07l-2.77,0a4.13,4.13,0,0,0-1.44.19.91.91,0,0,0-.57.82,8.86,8.86,0,0,0-.07,1v.62a3.32,3.32,0,0,0,.29,1.7C153,84.35,153.48,84.49,154.26,84.49Z"/><path class="cls-9" d="M170.33,77.43h2.22a5.13,5.13,0,0,1,3.35.81c.59.54.89,1.62.89,3.24v.44c0,1.9-.23,3.17-.71,3.82s-1.68,1-3.61,1l-2.1,0h-.88l-1.89-.07a3.76,3.76,0,0,1-2.46-.72,2.87,2.87,0,0,1-.86-2.32l0-1.69c0-1.86.24-3.07.72-3.64s1.6-.86,3.38-.86Zm-1.51,7.06,1.5,0h1.42a4.08,4.08,0,0,0,1.7-.26Q174,84,174,83l0-1.23a6.79,6.79,0,0,0-.07-1.09,1.2,1.2,0,0,0-.31-.66,1.37,1.37,0,0,0-.7-.28,7.4,7.4,0,0,0-1-.07l-2.77,0a4.13,4.13,0,0,0-1.44.19.91.91,0,0,0-.57.82,9.18,9.18,0,0,0-.08,1v.62a3.29,3.29,0,0,0,.3,1.7C167.56,84.35,168,84.49,168.82,84.49Z"/><path class="cls-9" d="M188.7,77.52v2.09h-6.92v1.56h6.92V83h-6.92v3.7H179V77.52Z"/><path class="cls-9" d="M190.39,86.68V77.52h2.79v9.16Z"/><path class="cls-9" d="M203.68,86.68l-5.51-6.88v6.88h-2.62V77.52H200l5.51,6.86V77.52h2.62v9.16Z"/><path class="cls-9" d="M222.27,81.52v1.92a4.31,4.31,0,0,1-.58,2.5,2.61,2.61,0,0,1-2.27.82h-3.11l-1.45,0a11.8,11.8,0,0,1-2.5-.21,2.41,2.41,0,0,1-1.47-.94,3.7,3.7,0,0,1-.54-2.22l0-1.15a7.39,7.39,0,0,1,.66-3.71c.44-.69,1.47-1,3.1-1l2.09,0H217l1.86,0a4.41,4.41,0,0,1,2.63.62,2.89,2.89,0,0,1,.82,2.41v.17h-2.73a1.61,1.61,0,0,0-.1-.57.59.59,0,0,0-.36-.33,1.88,1.88,0,0,0-.5-.11,6.46,6.46,0,0,0-.69,0l-3.23,0c-.65,0-1.07.16-1.24.48a3.53,3.53,0,0,0-.27,1.62v.85a2.88,2.88,0,0,0,.27,1.41.94.94,0,0,0,.74.52l.74.08H218a2.21,2.21,0,0,0,1.11-.23.93.93,0,0,0,.4-.88v-.26H216V81.52Z"/><path class="cls-9" d="M226.84,84.53V82.2h4.47v2.33Z"/><path class="cls-9" d="M238.71,83.9a.67.67,0,0,0,.38.71,3,3,0,0,0,1,.14l1.31,0,1.87-.06a1.71,1.71,0,0,0,1-.19.73.73,0,0,0,.24-.6.71.71,0,0,0-.27-.59,1.67,1.67,0,0,0-1-.22h-.46l-4.58-.1a2.23,2.23,0,0,1-1.82-.65,3.15,3.15,0,0,1-.53-2,3.74,3.74,0,0,1,.34-1.77,1.82,1.82,0,0,1,1.22-.86,10.56,10.56,0,0,1,2.32-.26c1,0,1.6,0,1.93,0l1.95,0a7.94,7.94,0,0,1,1.88.19,1.53,1.53,0,0,1,1,.68,2.82,2.82,0,0,1,.38.89,5.37,5.37,0,0,1,.08,1.1h-2.73a.74.74,0,0,0-.28-.67,1.35,1.35,0,0,0-.79-.2h-1.34l-2.13.07a1.47,1.47,0,0,0-.72.16.54.54,0,0,0-.29.53.64.64,0,0,0,.35.66A2.26,2.26,0,0,0,240,81h.29l1.86,0H244a4.57,4.57,0,0,1,2.58.56,2.56,2.56,0,0,1,.8,2.22,2.81,2.81,0,0,1-.72,2.23,3.74,3.74,0,0,1-2.38.6l-3.57.1-1.87,0a3.93,3.93,0,0,1-2.18-.48,2.21,2.21,0,0,1-.7-1.94v-.55h2.75Z"/><path class="cls-9" d="M255.47,77.43h2.22a5.1,5.1,0,0,1,3.34.81q.9.81.9,3.24v.44a7.08,7.08,0,0,1-.71,3.82c-.48.64-1.68,1-3.61,1l-2.1,0h-.88l-1.9-.07a3.71,3.71,0,0,1-2.45-.72,2.84,2.84,0,0,1-.87-2.32l0-1.69c0-1.86.23-3.07.71-3.64s1.61-.86,3.39-.86ZM254,84.49l1.49,0h1.43a4,4,0,0,0,1.69-.26c.35-.17.52-.59.52-1.26l0-1.23a6.67,6.67,0,0,0-.08-1.09,1.14,1.14,0,0,0-.31-.66,1.33,1.33,0,0,0-.69-.28,7.53,7.53,0,0,0-1-.07l-2.78,0a4.13,4.13,0,0,0-1.44.19.93.93,0,0,0-.57.82,8.86,8.86,0,0,0-.07,1v.62a3.43,3.43,0,0,0,.29,1.7C252.69,84.35,253.18,84.49,254,84.49Z"/><path class="cls-9" d="M273.24,84.38v2.3h-9.12V77.52h2.79v6.86Z"/><path class="cls-9" d="M277.13,86.68h-3.07l5.1-9.16h3.76l5,9.16h-3.07L284,85h-6ZM279,83.12h4l-2-3.84Z"/><path class="cls-9" d="M298.09,77.52a3.46,3.46,0,0,1,2.35.64,3,3,0,0,1,.71,2.26,7.66,7.66,0,0,1-.07,1,2,2,0,0,1-.28.77,1.38,1.38,0,0,1-.48.48,7.59,7.59,0,0,1-1.15.44,2.93,2.93,0,0,1,1.41.49,1.51,1.51,0,0,1,.46,1.27v1.76h-2.83V85.8a3.8,3.8,0,0,0-.12-1.07c-.07-.27-.44-.4-1.09-.4h-4.65v2.35h-2.78V77.52Zm-1.17,4.59a1.83,1.83,0,0,0,1.18-.24,1.53,1.53,0,0,0,.23-1,1.85,1.85,0,0,0-.09-.67.49.49,0,0,0-.37-.3,2,2,0,0,0-.46-.1h-5.06v2.36h4.57Z"/><path class="cls-9" d="M305.81,84.53V82.2h4.48v2.33Z"/><path class="cls-9" d="M330,83.59a3.42,3.42,0,0,1-.69,2.52,4.34,4.34,0,0,1-2.74.62l-2.13,0-1.73,0q-2.76,0-3.54-.72a2.87,2.87,0,0,1-.79-2.24l-.09-1.92a6.38,6.38,0,0,1,.66-3.3,3,3,0,0,1,2.69-1l2.61-.07,1.88,0c.49,0,1.09.06,1.8.13a1.81,1.81,0,0,1,1.51.93,4.64,4.64,0,0,1,.45,2.23h-2.7a1,1,0,0,0-.31-.84,1.81,1.81,0,0,0-1-.21h-3c-.84,0-1.35.16-1.54.47a4.23,4.23,0,0,0-.28,1.92,3.74,3.74,0,0,0,.33,2c.22.3.8.45,1.75.45l1.09,0h1.42a2.37,2.37,0,0,0,1.2-.23c.24-.16.36-.52.36-1.09H330Z"/><path class="cls-9" d="M338.09,77.43h2.22a5.1,5.1,0,0,1,3.34.81q.9.81.9,3.24v.44a7.08,7.08,0,0,1-.71,3.82c-.48.64-1.68,1-3.61,1l-2.1,0h-.88l-1.89-.07A3.76,3.76,0,0,1,332.9,86a2.84,2.84,0,0,1-.86-2.32L332,82c0-1.86.24-3.07.71-3.64s1.61-.86,3.39-.86Zm-1.51,7.06,1.49,0h1.43a4.12,4.12,0,0,0,1.7-.26q.51-.25.51-1.26l0-1.23a6.67,6.67,0,0,0-.08-1.09,1.14,1.14,0,0,0-.31-.66,1.3,1.3,0,0,0-.69-.28,7.53,7.53,0,0,0-1-.07l-2.77,0a4.13,4.13,0,0,0-1.44.19.91.91,0,0,0-.57.82,9.18,9.18,0,0,0-.08,1v.62a3.29,3.29,0,0,0,.3,1.7C335.31,84.35,335.8,84.49,336.58,84.49Z"/><path class="cls-9" d="M354.86,86.68l-5.51-6.88v6.88h-2.62V77.52h4.44l5.51,6.86V77.52h2.62v9.16Z"/><path class="cls-9" d="M364.32,83.9a.67.67,0,0,0,.38.71,3,3,0,0,0,1.05.14l1.32,0,1.87-.06a1.73,1.73,0,0,0,1-.19.75.75,0,0,0,.23-.6.71.71,0,0,0-.27-.59,1.65,1.65,0,0,0-1-.22h-.45l-4.59-.1a2.21,2.21,0,0,1-1.81-.65,3.08,3.08,0,0,1-.53-2,3.87,3.87,0,0,1,.33-1.77,1.86,1.86,0,0,1,1.23-.86,10.53,10.53,0,0,1,2.31-.26c1,0,1.6,0,1.93,0l1.95,0a7.82,7.82,0,0,1,1.88.19,1.55,1.55,0,0,1,1,.68,3.08,3.08,0,0,1,.38.89,6.2,6.2,0,0,1,.08,1.1h-2.73a.74.74,0,0,0-.28-.67,1.38,1.38,0,0,0-.79-.2h-1.35l-2.12.07a1.42,1.42,0,0,0-.72.16.54.54,0,0,0-.3.53.65.65,0,0,0,.35.66,2.26,2.26,0,0,0,.95.16h.29l1.87,0h1.84a4.51,4.51,0,0,1,2.57.56,2.53,2.53,0,0,1,.8,2.22,2.81,2.81,0,0,1-.72,2.23,3.72,3.72,0,0,1-2.38.6l-3.56.1-1.87,0a3.89,3.89,0,0,1-2.18-.48,2.21,2.21,0,0,1-.7-1.94v-.55h2.74Z"/><path class="cls-9" d="M378.43,86.68V79.81h-4.09V77.52h11v2.29h-4.07v6.87Z"/><path class="cls-9" d="M395.38,77.52a3.44,3.44,0,0,1,2.35.64,3,3,0,0,1,.71,2.26,6.35,6.35,0,0,1-.07,1,2,2,0,0,1-.27.77,1.57,1.57,0,0,1-.48.48,8.37,8.37,0,0,1-1.16.44,3,3,0,0,1,1.42.49,1.54,1.54,0,0,1,.45,1.27v1.76H395.5V85.8a4.28,4.28,0,0,0-.11-1.07c-.08-.27-.44-.4-1.09-.4h-4.66v2.35h-2.78V77.52Zm-1.17,4.59a1.83,1.83,0,0,0,1.18-.24,1.52,1.52,0,0,0,.24-1,1.85,1.85,0,0,0-.09-.67.52.52,0,0,0-.37-.3,2.15,2.15,0,0,0-.46-.1h-5.07v2.36h4.57Z"/><path class="cls-9" d="M412.48,82.75v.54c0,1.42-.37,2.36-1.12,2.82a6.88,6.88,0,0,1-3.45.68l-2.28,0a14.92,14.92,0,0,1-2.77-.19,2.49,2.49,0,0,1-1.55-1,4.07,4.07,0,0,1-.59-2.46V77.54h2.78v4.79a3.18,3.18,0,0,0,.33,1.78c.22.27.78.41,1.66.41h2.4a2.07,2.07,0,0,0,1.47-.36,2.26,2.26,0,0,0,.32-1.44V77.54h2.8Z"/><path class="cls-9" d="M426.41,83.59a3.37,3.37,0,0,1-.7,2.52,4.29,4.29,0,0,1-2.73.62l-2.13,0-1.73,0c-1.84,0-3-.24-3.55-.72a2.9,2.9,0,0,1-.79-2.24l-.08-1.92a6.38,6.38,0,0,1,.66-3.3c.44-.7,1.33-1,2.69-1l2.61-.07,1.88,0c.49,0,1.09.06,1.79.13a1.8,1.8,0,0,1,1.51.93,4.52,4.52,0,0,1,.46,2.23h-2.71a.94.94,0,0,0-.31-.84,1.76,1.76,0,0,0-1-.21h-3c-.84,0-1.36.16-1.54.47a4.19,4.19,0,0,0-.29,1.92,3.74,3.74,0,0,0,.33,2c.22.3.81.45,1.76.45l1.08,0h1.43a2.37,2.37,0,0,0,1.2-.23c.23-.16.35-.52.35-1.09h2.73Z"/><path class="cls-9" d="M431.83,86.68V79.81h-4.09V77.52h10.95v2.29h-4.08v6.87Z"/><path class="cls-9" d="M440.25,86.68V77.52H443v9.16Z"/><path class="cls-9" d="M451.33,77.43h2.22a5.1,5.1,0,0,1,3.34.81q.9.81.9,3.24v.44a7.08,7.08,0,0,1-.71,3.82c-.48.64-1.68,1-3.61,1l-2.1,0h-.88l-1.89-.07a3.74,3.74,0,0,1-2.46-.72,2.84,2.84,0,0,1-.87-2.32l0-1.69c0-1.86.23-3.07.71-3.64s1.61-.86,3.39-.86Zm-1.51,7.06,1.49,0h1.43a4,4,0,0,0,1.69-.26c.35-.17.52-.59.52-1.26l0-1.23a6.67,6.67,0,0,0-.08-1.09,1.14,1.14,0,0,0-.31-.66,1.3,1.3,0,0,0-.69-.28,7.53,7.53,0,0,0-1-.07l-2.77,0a4.09,4.09,0,0,0-1.44.19.91.91,0,0,0-.57.82,9.18,9.18,0,0,0-.08,1v.62a3.29,3.29,0,0,0,.3,1.7C448.55,84.35,449,84.49,449.82,84.49Z"/><path class="cls-9" d="M468.1,86.68l-5.51-6.88v6.88H460V77.52h4.44l5.51,6.86V77.52h2.62v9.16Z"/></svg>